#N canvas 285 48 678 752 10;
#X obj 235 143 table \$0-celda;
#X obj -159 282 soundfiler;
#X obj -159 230 pack s s;
#X obj -159 306 s \$0-length;
#X msg -40 291 \; \$2 normalize 1 \;;
#N canvas 358 275 788 416 reset 0;
#X obj 70 9 r \$0-reset;
#X obj 389 27 loadbang;
#X obj 96 166 symbol \$0-direction;
#X obj 229 180 symbol \$0-amount;
#X obj 345 192 symbol \$0-delR;
#X obj 439 211 symbol \$0-delL;
#X obj 550 247 symbol \$0-feed;
#X obj 21 147 s \$0-speed;
#X msg 21 115 1;
#X msg 96 140 1;
#X msg 230 157 1;
#X msg 345 167 0;
#X msg 439 188 0;
#X msg 550 219 0;
#X obj 70 47 t b;
#X obj 230 355 s \$0-end;
#X obj 316 353 s \$0-start;
#X msg 307 321 1;
#X msg 232 328 0;
#X connect 0 0 14 0;
#X connect 1 0 14 0;
#X connect 8 0 7 0;
#X connect 9 0 2 0;
#X connect 10 0 3 0;
#X connect 11 0 4 0;
#X connect 12 0 5 0;
#X connect 13 0 6 0;
#X connect 14 0 8 0;
#X connect 14 0 9 0;
#X connect 14 0 10 0;
#X connect 14 0 11 0;
#X connect 14 0 12 0;
#X connect 14 0 13 0;
#X connect 14 0 18 0;
#X connect 14 0 17 0;
#X connect 17 0 16 0;
#X connect 18 0 15 0;
#X restore 208 451 pd reset;
#X msg 19 177 1;
#X obj 19 206 s \$0-playstop-r;
#X obj -168 121 t s b b;
#X obj -95 160 s \$0-tabchange;
#X obj 19 151 del 100;
#X msg -159 257 read -resize -maxsize 1e+07 \$1 \$2;
#X obj 165 447 bng 22 250 50 0 \$0-reset \$0-reset-r reset 0 26 1 11
-260097 -258113 -258113;
#X obj -42 377 tgl 22 0 \$0-playstop \$0-playstop-r play/stop 23 10
1 15 -260097 -258113 -33289 0 1;
#X obj 167 489 bng 22 250 50 0 \$0-tostart \$0-tostart-r |< 4 11 2
17 -260097 -258113 -258113;
#X obj -165 4 inlet;
#X obj -64 100 s \$0-speed;
#X obj -11 116 s \$0-vol;
#X obj -106 195 symbol \$0-celda;
#N canvas 182 24 831 732 player 0;
#X obj 264 240 hip~ 5;
#X obj 437 75 +~ 1;
#X obj 263 -32 phasor~ 0;
#X obj 264 215 *~;
#X obj 542 74 line~;
#X obj 525 146 +~;
#X obj 542 98 samphold~;
#X obj 457 24 samphold~;
#X obj 438 51 *~;
#X obj 364 -352 r \$0-amount;
#X obj 542 50 pack 0 20;
#X obj 456 -246 -;
#X obj 542 -302 r \$0-start;
#X obj 456 -300 r \$0-end;
#X obj 504 -365 r \$0-length;
#X msg 188 -286 1;
#X msg 158 -286 -1;
#X obj 265 -363 r \$0-speed;
#X obj 75 -362 r \$0-direction;
#X obj 263 -135 * 1;
#X obj 158 -313 route 0 1;
#X obj 456 -276 * 1;
#X obj 542 -273 * 1;
#X obj 265 -315 t b f;
#X text 526 25 size;
#X obj 75 -334 t b f;
#N canvas 5 49 1014 656 env 0;
#X obj 282 247 -~;
#X obj 281 296 *~;
#X obj 282 324 min~;
#X floatatom 240 194 3 0 100 0 - - -;
#X text 350 183 <-- slope of rise segment. Just multiply this by the
phase to make the segment.;
#X text 350 258 Subtract this to make the phasor cross zero at the
desired point of the cycle.;
#X text 312 296 <-- slope of decay segment.;
#X text 341 309 multiply the phasor (with the zero crossing shifted
as above) by the desired slope \, negating it so the segment points
downward.;
#X obj 281 391 clip~ 0 1;
#X text 352 388 clip the triangle wave to between 0 and 1 \, to make
the sustain and silent regions.;
#X text 318 244 <-- Duty cycle (end of decay segment as % of cycle.)
;
#X obj 318 134 inlet~;
#X obj 281 422 outlet~;
#X obj 240 217 / 100;
#X obj 317 180 *~;
#X obj 64 64 loadbang;
#X msg 132 104 100;
#X text 374 131 <-- frequency (Hz.);
#X obj 253 34 r \$0-smoothstart;
#X obj 253 66 * 100;
#X obj 72 232 * 100;
#X obj 72 203 r \$0-smoothend;
#X obj 253 118 line~;
#X obj 72 316 line~;
#X obj 72 258 * -1;
#X obj 72 290 pack 0 200;
#X obj 253 94 pack 0 200;
#X msg 103 152 1;
#X connect 0 0 1 0;
#X connect 1 0 2 0;
#X connect 2 0 8 0;
#X connect 3 0 13 0;
#X connect 8 0 12 0;
#X connect 11 0 0 0;
#X connect 11 0 14 0;
#X connect 13 0 0 1;
#X connect 14 0 2 1;
#X connect 15 0 16 0;
#X connect 15 0 27 0;
#X connect 16 0 3 0;
#X connect 18 0 19 0;
#X connect 19 0 26 0;
#X connect 20 0 24 0;
#X connect 21 0 20 0;
#X connect 22 0 14 1;
#X connect 23 0 1 1;
#X connect 24 0 25 0;
#X connect 25 0 23 0;
#X connect 26 0 22 0;
#X connect 27 0 19 0;
#X connect 27 0 20 0;
#X restore 263 154 pd env;
#X obj 264 -163 expr 1 / $f1 * $f2;
#X msg 621 -188 0;
#X obj 621 -163 s \$0-start-r;
#X msg 715 -188 1;
#X obj 715 -163 s \$0-end-r;
#N canvas 5 49 1014 656 env2 0;
#X obj 324 66 r \$0-end;
#X obj 136 167 vline~;
#X obj 54 138 *~;
#X obj 136 112 b;
#X obj 31 50 inlet~;
#X obj 42 225 outlet~;
#X obj 228 64 r \$0-start;
#X obj 220 111 bng 15 250 50 0 empty empty empty 17 7 0 10 -262144
-1 -1;
#X msg 136 143 0 20 \, 1 250 450;
#X obj 114 65 r \$0-tabchange;
#X connect 0 0 3 0;
#X connect 1 0 2 1;
#X connect 2 0 5 0;
#X connect 3 0 8 0;
#X connect 4 0 2 0;
#X connect 6 0 3 0;
#X connect 7 0 8 0;
#X connect 8 0 1 0;
#X connect 9 0 3 0;
#X restore 524 195 pd env2;
#X obj 387 -259 * 1;
#X obj 364 -328 + 1;
#X obj 364 -295 t b b f;
#X msg 323 -64 0;
#X obj 306 -213 / 44100;
#X obj 306 -186 s \$0-dur;
#X obj 264 263 outlet~;
#X text 612 98 startpoint;
#X obj 12 -263 r \$0-playstop;
#X msg 12 -129 0;
#X msg 89 -154 bang;
#X text 183 -31 speed hrtz;
#X obj 493 -270 t b f;
#X obj 382 -95 r \$0-tostart;
#X text 446 -322 calclutes new/real length;
#X obj 61 -229 sel 1;
#X obj 6 -218 sel 0;
#X obj 263 -71 spigot;
#X obj 263 -101 float 1;
#X msg 600 -62 reset;
#X obj 76 -196 t b f;
#X msg 150 -151 1;
#X obj 504 -338 t b f;
#X obj 383 -123 r \$0-tabchange;
#X obj 525 172 tabread4~ \$0-celda;
#X connect 0 0 39 0;
#X connect 1 0 5 0;
#X connect 2 0 6 1;
#X connect 2 0 7 1;
#X connect 2 0 8 0;
#X connect 2 0 26 0;
#X connect 3 0 0 0;
#X connect 4 0 6 0;
#X connect 5 0 57 0;
#X connect 6 0 5 1;
#X connect 7 0 8 1;
#X connect 8 0 1 0;
#X connect 9 0 34 0;
#X connect 10 0 4 0;
#X connect 11 0 37 0;
#X connect 11 0 7 0;
#X connect 11 0 52 0;
#X connect 12 0 22 0;
#X connect 13 0 21 0;
#X connect 14 0 55 0;
#X connect 15 0 19 1;
#X connect 16 0 19 1;
#X connect 17 0 23 0;
#X connect 18 0 25 0;
#X connect 19 0 51 1;
#X connect 19 0 51 0;
#X connect 20 0 16 0;
#X connect 20 1 15 0;
#X connect 21 0 11 0;
#X connect 22 0 10 0;
#X connect 22 0 45 0;
#X connect 23 0 27 0;
#X connect 23 1 33 0;
#X connect 25 0 19 0;
#X connect 25 1 20 0;
#X connect 26 0 3 0;
#X connect 27 0 19 0;
#X connect 28 0 29 0;
#X connect 30 0 31 0;
#X connect 32 0 3 1;
#X connect 33 0 27 1;
#X connect 34 0 35 0;
#X connect 35 0 27 0;
#X connect 35 1 33 0;
#X connect 35 2 33 1;
#X connect 36 0 2 1;
#X connect 37 0 27 0;
#X connect 37 0 38 0;
#X connect 41 0 49 0;
#X connect 41 0 48 0;
#X connect 42 0 2 0;
#X connect 42 0 50 1;
#X connect 43 0 51 0;
#X connect 45 0 11 0;
#X connect 45 1 11 1;
#X connect 46 0 36 0;
#X connect 48 0 53 0;
#X connect 49 0 42 0;
#X connect 50 0 2 0;
#X connect 51 0 50 0;
#X connect 52 0 7 0;
#X connect 52 0 6 0;
#X connect 53 0 43 0;
#X connect 53 1 52 0;
#X connect 53 1 54 0;
#X connect 54 0 50 1;
#X connect 55 0 28 0;
#X connect 55 0 30 0;
#X connect 55 1 22 1;
#X connect 55 1 21 1;
#X connect 55 1 52 0;
#X connect 56 0 36 0;
#X connect 57 0 32 0;
#X restore -190 409 pd player;
#X obj -168 89 symbol;
#X obj -190 446 hip~ 20;
#N canvas 0 22 642 722 delay 0;
#X obj -79 485 *~;
#X obj 15 486 *~;
#X obj 53 117 delwrite~ \$0-delR 1000;
#X obj -132 133 delwrite~ \$0-delL 1000;
#X obj -151 356 delread~ \$0-delL;
#X obj 101 371 delread~ \$0-delR;
#X obj -48 254 *~;
#X obj 16 253 *~;
#X obj -23 215 line~;
#X obj -23 187 pack 0 50;
#X obj -146 260 r \$0-delL;
#X obj 100 269 r \$0-delR;
#X obj -140 295 pack 0 50;
#X obj 102 305 pack 0 50;
#X obj -146 393 hip~ 5;
#X obj 32 425 hip~ 5;
#X obj -143 323 line;
#X obj 99 333 line;
#X obj -23 166 r \$0-feed;
#X obj -14 68 inlet~;
#X obj -82 596 outlet~;
#X obj 1 591 outlet~;
#X obj -37 407 line~;
#X obj -37 379 pack 0 50;
#X obj -37 346 r \$0-vol;
#X obj 232 98 r \$0-tabchange;
#X obj 300 229 random 1000;
#X obj 203 227 random 1000;
#X obj 155 155 random 50;
#X obj 155 180 * 0.01;
#X connect 0 0 20 0;
#X connect 1 0 21 0;
#X connect 4 0 6 0;
#X connect 4 0 14 0;
#X connect 5 0 7 0;
#X connect 5 0 15 0;
#X connect 6 0 3 0;
#X connect 7 0 2 0;
#X connect 8 0 7 1;
#X connect 8 0 6 1;
#X connect 9 0 8 0;
#X connect 10 0 12 0;
#X connect 11 0 13 0;
#X connect 12 0 16 0;
#X connect 13 0 17 0;
#X connect 14 0 0 0;
#X connect 15 0 1 0;
#X connect 16 0 4 0;
#X connect 17 0 5 0;
#X connect 18 0 9 0;
#X connect 19 0 3 0;
#X connect 19 0 2 0;
#X connect 22 0 0 1;
#X connect 22 0 1 1;
#X connect 23 0 22 0;
#X connect 24 0 23 0;
#X connect 25 0 27 0;
#X connect 25 0 26 0;
#X connect 25 0 28 0;
#X connect 26 0 13 0;
#X connect 27 0 12 0;
#X connect 28 0 29 0;
#X connect 29 0 9 0;
#X restore -191 490 pd delay;
#X obj -41 408 outlet;
#X obj -200 567 outlet~;
#X obj -137 562 outlet~;
#X obj 172 271 s \$0-speed;
#X msg 173 243 1;
#X text -124 89 URI;
#X text 12 53 rot;
#X text 133 54 distance;
#X obj 162 340 s \$0-end;
#X obj 248 338 s \$0-start;
#X msg 239 306 1;
#X msg 164 313 0;
#X obj 112 119 s \$0-playstop-r;
#X obj -167 34 route 0 1 2 3;
#X obj -37 341 r masterStop;
#X obj 111 89 change;
#X connect 1 0 3 0;
#X connect 2 0 11 0;
#X connect 2 0 4 0;
#X connect 6 0 7 0;
#X connect 8 0 2 0;
#X connect 8 1 18 0;
#X connect 8 2 9 0;
#X connect 8 2 10 0;
#X connect 10 0 6 0;
#X connect 10 0 27 0;
#X connect 10 0 34 0;
#X connect 10 0 33 0;
#X connect 11 0 1 0;
#X connect 13 0 23 0;
#X connect 15 0 36 0;
#X connect 18 0 2 1;
#X connect 19 0 21 0;
#X connect 20 0 8 0;
#X connect 21 0 22 0;
#X connect 22 0 24 0;
#X connect 22 1 25 0;
#X connect 27 0 26 0;
#X connect 33 0 32 0;
#X connect 34 0 31 0;
#X connect 36 0 20 0;
#X connect 36 1 16 0;
#X connect 36 2 17 0;
#X connect 36 3 38 0;
#X connect 37 0 13 0;
#X connect 38 0 35 0;
