#N canvas 182 212 923 500 10;
#X obj 80 27 dumpOSC 32000;
#X obj 599 126 dac~;
#X obj 21 225 celda;
#X obj 90 239 tgl 15 0 empty empty empty 17 7 0 10 -262144 -1 -1 0
1;
#X obj 558 48 catch~ L;
#X obj 654 51 catch~ R;
#X obj 21 257 throw~ L;
#X obj 79 257 throw~ R;
#X obj 21 199 route 0;
#X obj 472 90 send pd;
#X msg 472 69 dsp \$1;
#X obj 472 44 tgl 15 0 empty empty empty 17 7 0 10 -262144 -1 -1 1
1;
#X obj 472 21 loadbang;
#X obj 588 85 freeverb~;
#N canvas 0 22 899 554 reverconfig 0;
#X msg 225 51 roomsize \$1;
#X msg 258 78 damping \$1;
#X msg 294 107 width \$1;
#X msg 341 233 print;
#X msg 340 271 freeze \$1;
#X msg 369 305 bypass \$1;
#X obj 361 37 loadbang;
#X obj 178 321 outlet;
#X text 515 192 debido a un bug del freeverb~ es necesario el noise
este:;
#X obj 459 185 noise~;
#X obj 459 209 *~ 1e-05;
#X obj 427 367 outlet~;
#X obj 509 366 outlet~;
#X msg 345 189 dry 0.35;
#X msg 324 144 wet 0.15;
#X connect 0 0 7 0;
#X connect 1 0 7 0;
#X connect 2 0 7 0;
#X connect 3 0 7 0;
#X connect 4 0 7 0;
#X connect 5 0 7 0;
#X connect 6 0 14 0;
#X connect 6 0 13 0;
#X connect 9 0 10 0;
#X connect 10 0 11 0;
#X connect 10 0 12 0;
#X connect 13 0 7 0;
#X connect 14 0 7 0;
#X restore 578 13 pd reverconfig;
#X obj 80 96 s celdaParams;
#X obj 21 176 r celdaParams;
#X obj 16 117 print;
#X obj 16 84 spigot;
#X obj 49 46 tgl 15 0 empty empty empty 17 7 0 10 -262144 -1 -1 1 1
;
#X text 2 46 barbosa;
#X obj 237 238 tgl 15 0 empty empty empty 17 7 0 10 -262144 -1 -1 0
1;
#X obj 168 256 throw~ L;
#X obj 226 256 throw~ R;
#X obj 168 175 r celdaParams;
#X obj 370 238 tgl 15 0 empty empty empty 17 7 0 10 -262144 -1 -1 0
1;
#X obj 301 256 throw~ L;
#X obj 359 256 throw~ R;
#X obj 301 175 r celdaParams;
#X obj 508 238 tgl 15 0 empty empty empty 17 7 0 10 -262144 -1 -1 0
1;
#X obj 439 256 throw~ L;
#X obj 497 256 throw~ R;
#X obj 439 175 r celdaParams;
#X obj 647 238 tgl 15 0 empty empty empty 17 7 0 10 -262144 -1 -1 0
1;
#X obj 578 256 throw~ L;
#X obj 636 256 throw~ R;
#X obj 578 175 r celdaParams;
#X obj 789 238 tgl 15 0 empty empty empty 17 7 0 10 -262144 -1 -1 0
1;
#X obj 725 255 throw~ L;
#X obj 783 255 throw~ R;
#X obj 725 174 r celdaParams;
#X obj 90 355 tgl 15 0 empty empty empty 17 7 0 10 -262144 -1 -1 0
1;
#X obj 21 373 throw~ L;
#X obj 79 373 throw~ R;
#X obj 21 292 r celdaParams;
#X obj 237 354 tgl 15 0 empty empty empty 17 7 0 10 -262144 -1 -1 0
1;
#X obj 168 372 throw~ L;
#X obj 226 372 throw~ R;
#X obj 168 291 r celdaParams;
#X obj 370 354 tgl 15 0 empty empty empty 17 7 0 10 -262144 -1 -1 0
1;
#X obj 301 372 throw~ L;
#X obj 359 372 throw~ R;
#X obj 301 291 r celdaParams;
#X obj 508 354 tgl 15 0 empty empty empty 17 7 0 10 -262144 -1 -1 0
1;
#X obj 439 372 throw~ L;
#X obj 497 372 throw~ R;
#X obj 439 291 r celdaParams;
#X obj 647 354 tgl 15 0 empty empty empty 17 7 0 10 -262144 -1 -1 0
1;
#X obj 578 372 throw~ L;
#X obj 636 372 throw~ R;
#X obj 578 291 r celdaParams;
#X obj 789 354 tgl 15 0 empty empty empty 17 7 0 10 -262144 -1 -1 0
1;
#X obj 725 371 throw~ L;
#X obj 783 371 throw~ R;
#X obj 725 290 r celdaParams;
#X obj 168 198 route 1;
#X obj 301 198 route 2;
#X obj 439 198 route 3;
#X obj 578 198 route 4;
#X obj 725 197 route 5;
#X obj 21 315 route 6;
#X obj 168 314 route 7;
#X obj 301 314 route 8;
#X obj 439 314 route 9;
#X obj 578 314 route 10;
#X obj 725 313 route 11;
#X obj 356 82 s masterStop;
#X msg 355 47 0;
#X msg 396 47 1;
#X text 741 13 TO-DO: *celdas Stereo;
#X obj 168 224 celda;
#X obj 301 224 celda;
#X obj 439 224 celda;
#X obj 578 224 celda;
#X obj 725 223 celda;
#X obj 21 341 celda;
#X obj 168 340 celda;
#X obj 301 340 celda;
#X obj 439 340 celda;
#X obj 578 340 celda;
#X obj 725 339 celda;
#X obj 184 95 s masterStop;
#X obj 80 62 OSCroute /celda /masters;
#X connect 0 0 92 0;
#X connect 2 0 6 0;
#X connect 2 1 7 0;
#X connect 2 2 3 0;
#X connect 4 0 13 0;
#X connect 5 0 13 1;
#X connect 8 0 2 0;
#X connect 10 0 9 0;
#X connect 11 0 10 0;
#X connect 12 0 11 0;
#X connect 13 0 1 0;
#X connect 13 1 1 1;
#X connect 14 0 13 0;
#X connect 14 1 13 0;
#X connect 14 2 13 1;
#X connect 16 0 8 0;
#X connect 18 0 17 0;
#X connect 19 0 18 1;
#X connect 24 0 65 0;
#X connect 28 0 66 0;
#X connect 32 0 67 0;
#X connect 36 0 68 0;
#X connect 40 0 69 0;
#X connect 44 0 70 0;
#X connect 48 0 71 0;
#X connect 52 0 72 0;
#X connect 56 0 73 0;
#X connect 60 0 74 0;
#X connect 64 0 75 0;
#X connect 65 0 80 0;
#X connect 66 0 81 0;
#X connect 67 0 82 0;
#X connect 68 0 83 0;
#X connect 69 0 84 0;
#X connect 70 0 85 0;
#X connect 71 0 86 0;
#X connect 72 0 87 0;
#X connect 73 0 88 0;
#X connect 74 0 89 0;
#X connect 75 0 90 0;
#X connect 77 0 76 0;
#X connect 78 0 76 0;
#X connect 80 0 22 0;
#X connect 80 1 23 0;
#X connect 80 2 21 0;
#X connect 81 0 26 0;
#X connect 81 1 27 0;
#X connect 81 2 25 0;
#X connect 82 0 30 0;
#X connect 82 1 31 0;
#X connect 82 2 29 0;
#X connect 83 0 34 0;
#X connect 83 1 35 0;
#X connect 83 2 33 0;
#X connect 84 0 38 0;
#X connect 84 1 39 0;
#X connect 84 2 37 0;
#X connect 85 0 42 0;
#X connect 85 1 43 0;
#X connect 85 2 41 0;
#X connect 86 0 46 0;
#X connect 86 1 47 0;
#X connect 86 2 45 0;
#X connect 87 0 50 0;
#X connect 87 1 51 0;
#X connect 87 2 49 0;
#X connect 88 0 54 0;
#X connect 88 1 55 0;
#X connect 88 2 53 0;
#X connect 89 0 58 0;
#X connect 89 1 59 0;
#X connect 89 2 57 0;
#X connect 90 0 62 0;
#X connect 90 1 63 0;
#X connect 90 2 61 0;
#X connect 92 0 15 0;
#X connect 92 0 18 0;
#X connect 92 1 91 0;
